<?xml version="1.0" encoding="UTF-8"?>
<!-- Generator: Adobe Illustrator 24.1.2, SVG Export Plug-In . SVG Version: 6.00 Build 0)  -->
<svg version="1.1" id="Layer_1" xmlns="http://www.w3.org/2000/svg" xmlns:xlink="http://www.w3.org/1999/xlink" x="0px" y="0px" viewBox="0 0 568.2 217.6" style="enable-background:new 0 0 568.2 217.6;" xml:space="preserve">
<style type="text/css">
	.st0{fill:#FFFFFF;}
	.st1{fill:#FF5A00;}
</style>
<g>
	<path class="st0" d="M190.1,105.9c-1.3-5-3.9-10.3-7.6-15.7c-3.6-5.3-8.4-10.7-14.2-16c-0.3-0.3-0.6-0.6-1-0.9   c-0.3-0.3-0.6-0.6-1-0.8c-0.3-0.3-0.6-0.6-1-0.8c-0.3-0.3-0.7-0.5-1-0.8c4.8,4.5,8.6,9.1,11.6,13.5c3,4.5,5,9,5.9,13.1   c1,4.2,0.9,8.1-0.4,11.5c-1.3,3.4-3.9,6.3-7.7,8.2c-4.1,2.1-9.2,3-15,2.8c-5.9-0.1-12.5-1.4-19.4-3.6s-14-5.5-20.9-9.6   s-13.4-9-19.1-14.5c-5.5-5.3-9.7-10.7-12.6-15.8c-2.8-5.1-4.4-9.8-4.6-14.1c-0.2-4.2,0.8-7.9,2.9-10.8c2.1-2.9,5.4-5.1,9.8-6.3   c-0.3,0-0.6,0.1-0.9,0.1c-0.3,0.1-0.6,0.1-0.9,0.2c-0.3,0.1-0.6,0.1-0.9,0.2C92,45.9,91.7,46,91.4,46c-5.5,1.3-9.7,3.8-12.5,7.1   c-2.9,3.4-4.4,7.7-4.3,12.7c0.1,5.1,1.7,10.9,4.9,17c3.3,6.2,8.3,12.8,14.9,19.2c6.7,6.5,14.4,12.3,22.4,17.1   c8.1,4.8,16.4,8.5,24.6,11.1c8,2.5,15.8,3.9,22.7,3.9c6.8,0,12.7-1.2,17.3-3.8c4.5-2.5,7.4-6.1,8.8-10.3   C191.5,115.8,191.4,111,190.1,105.9z"/>
	<path class="st0" d="M82,134.4c-2-1.5-4-3-5.9-4.6s-3.9-3.1-5.7-4.8c-1.9-1.6-3.7-3.3-5.5-4.9c-1.8-1.7-3.5-3.4-5.2-5.1   s-3.3-3.4-4.9-5.2c-1.6-1.7-3.1-3.4-4.5-5.2c-1.4-1.7-2.8-3.4-4.1-5.1s-2.5-3.4-3.6-5.1L24,128.5L82,134.4"/>
	<g>
		<path class="st0" d="M282.9,65.5l-3.8,7.7c-2.1-2.1-5.4-3.1-10-3.1c-4.4,0-8,1.8-10.8,5.5c-2.8,3.7-4.2,8.3-4.2,13.9    s1.3,10.1,3.9,13.4s6.1,4.9,10.4,4.9c4.9,0,8.8-1.8,11.6-5.3l4.3,7.5c-3.8,4-9.4,6.1-16.7,6.1c-7.3,0-13-2.4-17.1-7.2    c-4.1-4.8-6.1-11.4-6.1-19.8c0-7.8,2.3-14.3,6.8-19.5s10.3-7.8,17.3-7.8C274.5,61.8,279.3,63,282.9,65.5z"/>
		<path class="st0" d="M286,88.5c0-7.5,2-13.8,6.1-19s9.6-7.8,16.4-7.8c7.6,0,13.3,2.3,17.3,7s6,11.3,6,19.7    c0,8.5-2.1,15.2-6.3,20.2c-4.2,5-10.1,7.5-17.8,7.5c-7.1,0-12.5-2.5-16.2-7.4C287.9,103.8,286,97,286,88.5z M295.7,88.5    c0,6.1,1,10.9,3.1,14.3s5.1,5.1,9.1,5.1c4.7,0,8.2-1.6,10.7-4.9s3.7-8.1,3.7-14.4c0-12.3-4.5-18.5-13.6-18.5c-4.2,0-7.4,1.7-9.6,5    C296.8,78.4,295.7,82.8,295.7,88.5z"/>
		<path class="st0" d="M387.7,115.2h-9l-5.5-28.3l-10.6,29h-3.3l-10.6-29l-5.7,28.3h-9l10.6-52.6h4.9L360.9,98L372,62.6h4.9    L387.7,115.2z"/>
		<path class="st0" d="M402.1,95.9v19.3h-9.3V62.7c6.2-0.3,9.9-0.4,10.9-0.4c8.3,0,14.4,1.3,18.2,3.8c3.8,2.5,5.8,6.5,5.8,11.9    c0,12-7.1,18.1-21.3,18.1C405.3,96.1,403.8,96,402.1,95.9z M402.1,70.8v16.8c1.6,0.2,2.8,0.3,3.7,0.3c4.3,0,7.4-0.7,9.3-2.1    c2-1.4,2.9-3.7,2.9-6.9c0-5.4-4.4-8.2-13.2-8.2C403.9,70.6,403,70.6,402.1,70.8z"/>
		<path class="st0" d="M460.6,115.2l-3.8-10.7h-18l-3.7,10.7h-10.4l20.9-53.3h4.1l21.1,53.3H460.6z M447.7,78l-6.3,19.4H454    L447.7,78z"/>
		<path class="st0" d="M474.2,112.3l3.4-8.4c3.7,2.6,7.3,3.9,10.9,3.9c5.5,0,8.2-1.9,8.2-5.7c0-1.8-0.6-3.5-1.9-5.1s-4-3.4-8-5.5    c-4-2-6.7-3.7-8.1-5s-2.5-2.9-3.2-4.6c-0.8-1.8-1.1-3.8-1.1-6c0-4.1,1.5-7.4,4.5-10.1c3-2.7,6.8-4,11.5-4c6.1,0,10.5,1.1,13.4,3.4    l-2.8,8c-3.3-2.3-6.7-3.5-10.4-3.5c-2.2,0-3.8,0.6-5,1.7s-1.8,2.6-1.8,4.4c0,3,3.3,6.1,10,9.4c3.5,1.7,6,3.3,7.6,4.8    c1.6,1.4,2.7,3.1,3.5,5.1c0.8,1.9,1.2,4.1,1.2,6.4c0,4.3-1.7,7.8-5,10.5c-3.4,2.8-7.9,4.1-13.5,4.1    C482.5,116.1,478.1,114.8,474.2,112.3z"/>
		<path class="st0" d="M509.4,112.3l3.4-8.4c3.7,2.6,7.3,3.9,10.9,3.9c5.5,0,8.2-1.9,8.2-5.7c0-1.8-0.6-3.5-1.9-5.1    c-1.3-1.6-4-3.4-8-5.5c-4-2-6.7-3.7-8.1-5c-1.4-1.3-2.5-2.9-3.2-4.6c-0.8-1.8-1.1-3.8-1.1-6c0-4.1,1.5-7.4,4.5-10.1    c3-2.7,6.8-4,11.5-4c6.1,0,10.5,1.1,13.4,3.4l-2.8,8c-3.3-2.3-6.7-3.5-10.4-3.5c-2.2,0-3.8,0.6-5,1.7S519,74,519,75.8    c0,3,3.3,6.1,10,9.4c3.5,1.7,6,3.3,7.6,4.8c1.6,1.4,2.7,3.1,3.6,5.1c0.8,1.9,1.2,4.1,1.2,6.4c0,4.3-1.7,7.8-5,10.5    c-3.4,2.8-7.9,4.1-13.5,4.1C517.8,116.1,513.4,114.8,509.4,112.3z"/>
	</g>
</g>
<g>
	<g>
		<path class="st1" d="M217.4,115.4c-2.4-7.6-6.6-15.6-12.3-23.6c-5.6-7.8-12.8-15.7-21.4-23.4c-0.7-0.6-1.3-1.2-2-1.8    c-0.7-0.6-1.4-1.2-2-1.7c-0.7-0.6-1.4-1.1-2.1-1.7c-0.7-0.6-1.4-1.1-2.1-1.7c0.3,0.2,0.5,0.4,0.8,0.6c0.2,0.2,0.5,0.4,0.7,0.6    c0.2,0.2,0.5,0.4,0.7,0.7c0.2,0.2,0.5,0.4,0.7,0.7c7.8,7,14.3,14.1,19.3,21.2c5.1,7.2,8.8,14.3,10.9,21.1    c2.1,6.9,2.6,13.5,1.1,19.3c-1.5,6-5.2,11-11.1,14.7c-6.2,3.8-14.2,5.8-23.6,6c-9.6,0.2-20.5-1.6-32-5.1    c-11.7-3.6-23.7-8.9-35.3-15.8c-11.6-6.9-22.6-15.2-32.1-24.6C66.3,91.7,59.4,82.4,55,73.6c-4.3-8.5-6.2-16.5-5.8-23.4    c0.4-6.7,2.8-12.4,7.3-16.7c4.3-4.2,10.4-7.2,18.3-8.6c0.2,0,0.5-0.1,0.7-0.1s0.5-0.1,0.7-0.1s0.5-0.1,0.7-0.1s0.5-0.1,0.8-0.1    c-0.7,0-1.4,0.1-2.1,0.2s-1.4,0.1-2.1,0.2s-1.4,0.2-2.1,0.3c-0.7,0.1-1.4,0.2-2,0.3c-8.8,1.6-15.7,4.9-20.7,9.6    c-5.1,4.9-8.1,11.3-8.6,18.8c-0.6,7.8,1.4,16.8,6.1,26.5c4.8,10,12.5,20.6,23,31.1c10.7,10.7,23.1,20.2,36.3,27.9    c13.1,7.7,26.8,13.7,39.9,17.6c12.9,3.8,25.1,5.5,35.9,5.1c10.4-0.4,19.3-2.9,26-7.6c6.4-4.4,10.3-10.4,11.8-17.2    C220.6,130.7,219.9,123.2,217.4,115.4z"/>
		<path class="st1" d="M225.8,152.8c-0.5,1-1.1,1.9-1.8,2.8c-0.6,0.9-1.3,1.8-2.1,2.7s-1.6,1.7-2.5,2.5s-1.8,1.6-2.8,2.3    c-1,0.8-2.1,1.5-3.2,2.1c-1.1,0.7-2.3,1.3-3.5,1.8c-1.2,0.6-2.5,1.1-3.8,1.6s-2.7,0.9-4.1,1.3l47,23.4L225.8,152.8"/>
		<path class="st1" d="M209.4,60.5l-32.7-7.2c1.4,1,2.9,2.1,4.3,3.1c1.4,1.1,2.8,2.1,4.2,3.3c1.4,1.1,2.8,2.2,4.1,3.4    c1.4,1.1,2.7,2.3,4.1,3.5c1.3,1.2,2.6,2.4,3.9,3.6c1.3,1.2,2.5,2.4,3.7,3.6s2.4,2.4,3.5,3.6c1.2,1.2,2.3,2.4,3.4,3.7L209.4,60.5"/>
	</g>
	<g>
		<path class="st1" d="M246.7,148v-23.4h4.2V148H246.7z"/>
		<path class="st1" d="M280.7,148.3l-11.4-14.8V148h-4v-23.5h2l11.1,14.1v-14.1h4v23.8H280.7z"/>
		<path class="st1" d="M301,128.3v5.5h8.2v3.5H301V148h-4.2v-23.4h15.4v3.7H301z"/>
		<path class="st1" d="M323.6,136.1c0-3.3,0.9-6.2,2.7-8.5c1.8-2.3,4.3-3.5,7.3-3.5c3.4,0,5.9,1,7.7,3.1c1.8,2.1,2.7,5,2.7,8.8    c0,3.8-0.9,6.8-2.8,9s-4.5,3.3-7.9,3.3c-3.1,0-5.6-1.1-7.2-3.3C324.4,142.9,323.6,139.9,323.6,136.1z M327.9,136.1    c0,2.7,0.5,4.9,1.4,6.4s2.3,2.3,4,2.3c2.1,0,3.7-0.7,4.8-2.2c1.1-1.5,1.6-3.6,1.6-6.4c0-5.5-2-8.2-6.1-8.2c-1.9,0-3.3,0.7-4.3,2.2    C328.4,131.6,327.9,133.6,327.9,136.1z"/>
		<path class="st1" d="M370.6,148l-6.3-9.7c-0.6,0-1.5,0-2.6-0.1v9.8h-4.3v-23.4c0.2,0,1.1,0,2.7-0.1s2.8-0.1,3.8-0.1    c6,0,8.9,2.3,8.9,6.9c0,1.4-0.4,2.7-1.2,3.8c-0.8,1.1-1.9,1.9-3.1,2.4l6.9,10.6h-4.8V148z M361.7,128.2v6.5    c0.8,0.1,1.4,0.1,1.8,0.1c1.7,0,3-0.2,3.8-0.7s1.2-1.4,1.2-2.9c0-1.2-0.4-2-1.3-2.4c-0.9-0.5-2.2-0.7-4.1-0.7    C362.7,128.1,362.2,128.1,361.7,128.2z"/>
		<path class="st1" d="M410.3,148h-4l-2.4-12.6l-4.7,12.9h-1.5l-4.7-12.9l-2.5,12.6h-4l4.7-23.5h2.2l5.1,15.8l5-15.8h2.2L410.3,148z    "/>
		<path class="st1" d="M437.5,148l-1.7-4.8h-8l-1.6,4.8h-4.6l9.3-23.8h1.8l9.4,23.8H437.5z M431.7,131.4l-2.8,8.7h5.6L431.7,131.4z"/>
		<path class="st1" d="M461.1,128.3V148h-4.2v-19.7h-7.5v-3.7h19.4v3.7H461.1z"/>
		<path class="st1" d="M481.3,148v-23.4h4.2V148H481.3z"/>
		<path class="st1" d="M516,125.8l-1.7,3.4c-0.9-0.9-2.4-1.4-4.5-1.4c-2,0-3.6,0.8-4.8,2.5c-1.2,1.6-1.9,3.7-1.9,6.2s0.6,4.5,1.7,6    c1.2,1.5,2.7,2.2,4.6,2.2c2.2,0,3.9-0.8,5.2-2.4l1.9,3.4c-1.7,1.8-4.2,2.7-7.5,2.7s-5.8-1.1-7.6-3.2c-1.8-2.2-2.7-5.1-2.7-8.8    c0-3.5,1-6.4,3-8.7s4.6-3.5,7.7-3.5C512.3,124.2,514.4,124.7,516,125.8z"/>
		<path class="st1" d="M528.7,146.7l1.5-3.7c1.6,1.2,3.3,1.7,4.8,1.7c2.4,0,3.7-0.9,3.7-2.6c0-0.8-0.3-1.6-0.9-2.3    c-0.6-0.7-1.8-1.5-3.6-2.4s-3-1.6-3.6-2.2c-0.6-0.6-1.1-1.3-1.4-2.1c-0.3-0.8-0.5-1.7-0.5-2.7c0-1.8,0.7-3.3,2-4.5s3-1.8,5.1-1.8    c2.7,0,4.7,0.5,6,1.5l-1.3,3.6c-1.5-1-3-1.6-4.6-1.6c-1,0-1.7,0.3-2.2,0.8c-0.5,0.5-0.8,1.2-0.8,2c0,1.3,1.5,2.7,4.5,4.2    c1.6,0.8,2.7,1.5,3.4,2.1s1.2,1.4,1.6,2.3c0.4,0.9,0.5,1.8,0.5,2.9c0,1.9-0.8,3.5-2.2,4.7c-1.5,1.2-3.5,1.8-6,1.8    C532.4,148.4,530.5,147.8,528.7,146.7z"/>
	</g>
</g>
<g>
	<path class="st0" d="M273.3,158.6c1.8,0,3.2,0.5,4.2,1.4c0.9,0.9,1.4,2.3,1.4,4c0,1.7-0.5,3-1.4,4c-0.9,1-2.3,1.4-4.2,1.4h-5.6v7.4   h-2.4v-18.2L273.3,158.6L273.3,158.6z M272.5,167.4c1.4,0,2.4-0.3,3-0.8s1-1.4,1-2.5c0-1.1-0.3-1.9-1-2.5s-1.6-0.9-3-0.9h-4.7v6.7   L272.5,167.4L272.5,167.4z"/>
	<path class="st0" d="M292.5,176.8c-0.4,0.2-0.9,0.3-1.6,0.3c-0.6,0-1-0.2-1.3-0.5s-0.5-0.8-0.5-1.5c-0.6,0.7-1.3,1.2-2.1,1.5   c-0.8,0.3-1.6,0.5-2.6,0.5c-0.6,0-1.2-0.1-1.7-0.2c-0.5-0.1-1-0.3-1.4-0.6c-0.4-0.3-0.7-0.7-0.9-1.1c-0.2-0.5-0.3-1-0.3-1.7   c0-0.7,0.1-1.4,0.4-1.8c0.3-0.5,0.6-0.9,1-1.2c0.4-0.3,0.9-0.5,1.4-0.7c0.5-0.2,1.1-0.3,1.6-0.4c0.6-0.1,1.2-0.2,1.7-0.3   c0.5-0.1,1-0.1,1.4-0.3c0.4-0.1,0.7-0.3,1-0.5c0.2-0.2,0.4-0.5,0.4-0.9c0-0.5-0.1-0.9-0.3-1.1c-0.2-0.3-0.4-0.5-0.7-0.7   c-0.3-0.2-0.6-0.3-0.9-0.3c-0.3-0.1-0.7-0.1-1-0.1c-0.9,0-1.7,0.2-2.3,0.5c-0.6,0.3-0.9,1-1,2h-2.2c0-0.8,0.2-1.5,0.5-2.1   c0.3-0.6,0.7-1,1.2-1.4c0.5-0.3,1.1-0.6,1.7-0.8s1.4-0.2,2.1-0.2c0.6,0,1.2,0,1.8,0.1c0.6,0.1,1.1,0.3,1.6,0.5   c0.5,0.3,0.9,0.6,1.1,1.1c0.3,0.5,0.4,1.1,0.4,1.9v6.8c0,0.5,0,0.9,0.1,1.1c0.1,0.2,0.3,0.4,0.6,0.4c0.2,0,0.4,0,0.7-0.1   L292.5,176.8L292.5,176.8z M289,170c-0.3,0.2-0.6,0.4-1.1,0.4c-0.4,0.1-0.9,0.2-1.4,0.2c-0.5,0.1-1,0.1-1.5,0.2   c-0.5,0.1-0.9,0.2-1.3,0.4s-0.7,0.4-1,0.7c-0.2,0.3-0.4,0.7-0.4,1.3c0,0.4,0.1,0.7,0.2,0.9s0.3,0.4,0.6,0.6s0.5,0.3,0.8,0.3   c0.3,0.1,0.6,0.1,1,0.1c0.7,0,1.3-0.1,1.8-0.3c0.5-0.2,0.9-0.4,1.2-0.7c0.3-0.3,0.6-0.6,0.7-1c0.2-0.3,0.2-0.7,0.2-1L289,170   L289,170z"/>
	<path class="st0" d="M296.5,163.7v2.8h0.1c0.5-1.1,1.2-1.9,1.9-2.4c0.8-0.5,1.7-0.7,2.9-0.7v2.3c-0.9,0-1.6,0.1-2.2,0.4   c-0.6,0.2-1.1,0.6-1.5,1c-0.4,0.5-0.6,1-0.8,1.7c-0.2,0.7-0.3,1.4-0.3,2.3v5.9h-2.2v-13.2L296.5,163.7L296.5,163.7z"/>
	<path class="st0" d="M309.4,163.7v1.9h-2.6v8.2c0,0.3,0,0.5,0.1,0.6s0.1,0.3,0.2,0.4c0.1,0.1,0.3,0.1,0.5,0.2s0.5,0,0.8,0h1v1.9   h-1.7c-0.6,0-1,0-1.4-0.1c-0.4-0.1-0.7-0.2-1-0.4c-0.2-0.2-0.4-0.5-0.5-0.9c-0.1-0.4-0.2-0.9-0.2-1.5v-8.4h-2.2v-1.9h2.2v-3.9h2.2   v3.9L309.4,163.7L309.4,163.7z"/>
	<path class="st0" d="M318.5,167.6c0.3-0.8,0.7-1.6,1.2-2.2c0.5-0.6,1.2-1.1,2-1.5s1.7-0.5,2.8-0.5c1.1,0,2,0.2,2.8,0.5   c0.8,0.4,1.5,0.8,2,1.5c0.5,0.6,1,1.4,1.2,2.2c0.3,0.8,0.4,1.7,0.4,2.7s-0.1,1.9-0.4,2.7c-0.3,0.8-0.7,1.6-1.2,2.2   c-0.5,0.6-1.2,1.1-2,1.5c-0.8,0.3-1.7,0.5-2.8,0.5c-1,0-2-0.2-2.8-0.5s-1.5-0.8-2-1.5c-0.5-0.6-1-1.3-1.2-2.2   c-0.3-0.8-0.4-1.7-0.4-2.7C318.1,169.3,318.3,168.4,318.5,167.6z M320.7,172.4c0.2,0.6,0.5,1.1,0.9,1.6c0.4,0.4,0.8,0.7,1.3,1   s1,0.3,1.6,0.3c0.6,0,1.1-0.1,1.6-0.3c0.5-0.2,0.9-0.5,1.3-1c0.4-0.4,0.7-0.9,0.9-1.6c0.2-0.6,0.3-1.3,0.3-2.1   c0-0.8-0.1-1.5-0.3-2.1c-0.2-0.6-0.5-1.1-0.9-1.6s-0.8-0.7-1.3-1c-0.5-0.2-1-0.3-1.6-0.3c-0.6,0-1.1,0.1-1.6,0.3s-0.9,0.5-1.3,1   s-0.7,0.9-0.9,1.6c-0.2,0.6-0.3,1.3-0.3,2.1C320.4,171.1,320.5,171.8,320.7,172.4z"/>
	<path class="st0" d="M331.7,165.6v-1.9h2.2v-2c0-1.1,0.3-1.9,0.9-2.4s1.5-0.8,2.7-0.8c0.2,0,0.4,0,0.7,0.1c0.3,0,0.5,0.1,0.7,0.2   v1.9c-0.2-0.1-0.4-0.1-0.6-0.1c-0.2,0-0.4,0-0.6,0c-0.5,0-0.9,0.1-1.2,0.3c-0.3,0.2-0.4,0.6-0.4,1.2v1.8h2.5v1.9h-2.5v11.3h-2.2   v-11.3H331.7z"/>
	<path class="st0" d="M353.3,163.7v1.9h-2.6v8.2c0,0.3,0,0.5,0.1,0.6c0,0.2,0.1,0.3,0.2,0.4c0.1,0.1,0.3,0.1,0.5,0.2s0.5,0,0.8,0h1   v1.9h-1.7c-0.6,0-1,0-1.4-0.1c-0.4-0.1-0.7-0.2-1-0.4c-0.2-0.2-0.4-0.5-0.5-0.9c-0.1-0.4-0.2-0.9-0.2-1.5v-8.4h-2.2v-1.9h2.2v-3.9   h2.2v3.9L353.3,163.7L353.3,163.7z"/>
	<path class="st0" d="M357.5,158.6v7h0.1c0.2-0.4,0.4-0.8,0.7-1c0.3-0.3,0.6-0.5,1-0.7c0.4-0.2,0.8-0.3,1.2-0.4   c0.4-0.1,0.8-0.1,1.2-0.1c0.9,0,1.6,0.1,2.2,0.4c0.6,0.2,1,0.6,1.4,1s0.6,0.9,0.8,1.5c0.1,0.6,0.2,1.2,0.2,1.9v8.7h-2.2v-8.9   c0-0.8-0.2-1.5-0.7-1.9c-0.5-0.5-1.1-0.7-2-0.7c-0.7,0-1.2,0.1-1.7,0.3s-0.9,0.5-1.2,0.9c-0.3,0.4-0.6,0.8-0.7,1.3   c-0.2,0.5-0.2,1-0.2,1.6v7.4h-2.2v-18.2H357.5z"/>
	<path class="st0" d="M378.7,176c-1,0.7-2.2,1.1-3.7,1.1c-1.1,0-2-0.2-2.7-0.5c-0.8-0.3-1.4-0.8-1.9-1.4c-0.5-0.6-0.9-1.3-1.2-2.2   c-0.3-0.8-0.4-1.8-0.4-2.8c0-1,0.2-1.9,0.5-2.8c0.3-0.8,0.7-1.6,1.3-2.2s1.2-1.1,2-1.4c0.8-0.3,1.6-0.5,2.5-0.5   c1.2,0,2.1,0.2,2.9,0.7c0.8,0.5,1.4,1.1,1.9,1.8c0.5,0.7,0.8,1.6,1,2.4c0.2,0.9,0.3,1.7,0.2,2.5h-9.9c0,0.6,0.1,1.1,0.2,1.6   c0.2,0.5,0.4,1,0.7,1.4c0.3,0.4,0.8,0.7,1.3,1c0.5,0.2,1.1,0.4,1.9,0.4c0.9,0,1.7-0.2,2.3-0.6s1-1.1,1.2-1.9h2.1   C380.3,174.1,379.7,175.3,378.7,176z M378.2,167.5c-0.2-0.5-0.5-0.9-0.8-1.2c-0.3-0.3-0.7-0.6-1.2-0.8c-0.4-0.2-0.9-0.3-1.5-0.3   c-0.6,0-1.1,0.1-1.5,0.3c-0.4,0.2-0.8,0.5-1.2,0.8c-0.3,0.3-0.6,0.7-0.8,1.2c-0.2,0.4-0.3,0.9-0.3,1.4h7.6   C378.5,168.5,378.3,168,378.2,167.5z"/>
	<path class="st0" d="M388.5,160.7v-2h14.5v2H397v16.2h-2.4v-16.2H388.5z"/>
	<path class="st0" d="M404.4,163.7v2.8h0.1c0.5-1.1,1.2-1.9,1.9-2.4c0.8-0.5,1.7-0.7,2.9-0.7v2.3c-0.9,0-1.6,0.1-2.2,0.4   c-0.6,0.2-1.1,0.6-1.5,1c-0.4,0.5-0.6,1-0.8,1.7c-0.2,0.7-0.3,1.4-0.3,2.3v5.9h-2.2v-13.2L404.4,163.7L404.4,163.7z"/>
	<path class="st0" d="M422.5,176.8c-0.4,0.2-0.9,0.3-1.6,0.3c-0.6,0-1-0.2-1.3-0.5c-0.3-0.3-0.5-0.8-0.5-1.5   c-0.6,0.7-1.3,1.2-2.1,1.5c-0.8,0.3-1.6,0.5-2.6,0.5c-0.6,0-1.2-0.1-1.7-0.2c-0.5-0.1-1-0.3-1.4-0.6c-0.4-0.3-0.7-0.7-0.9-1.1   c-0.2-0.5-0.3-1-0.3-1.7c0-0.7,0.1-1.4,0.4-1.8c0.3-0.5,0.6-0.9,1-1.2c0.4-0.3,0.9-0.5,1.4-0.7c0.5-0.2,1.1-0.3,1.6-0.4   c0.6-0.1,1.2-0.2,1.7-0.3c0.5-0.1,1-0.1,1.4-0.3c0.4-0.1,0.7-0.3,1-0.5c0.2-0.2,0.4-0.5,0.4-0.9c0-0.5-0.1-0.9-0.3-1.1   c-0.2-0.3-0.4-0.5-0.7-0.7c-0.3-0.2-0.6-0.3-0.9-0.3c-0.3-0.1-0.7-0.1-1-0.1c-0.9,0-1.7,0.2-2.3,0.5c-0.6,0.3-0.9,1-1,2h-2.2   c0-0.8,0.2-1.5,0.5-2.1c0.3-0.6,0.7-1,1.2-1.4c0.5-0.3,1.1-0.6,1.7-0.8c0.7-0.2,1.4-0.2,2.1-0.2c0.6,0,1.2,0,1.8,0.1   c0.6,0.1,1.1,0.3,1.6,0.5c0.5,0.3,0.9,0.6,1.1,1.1c0.3,0.5,0.4,1.1,0.4,1.9v6.8c0,0.5,0,0.9,0.1,1.1c0.1,0.2,0.3,0.4,0.6,0.4   c0.2,0,0.4,0,0.7-0.1L422.5,176.8L422.5,176.8z M419,170c-0.3,0.2-0.6,0.4-1.1,0.4c-0.4,0.1-0.9,0.2-1.4,0.2   c-0.5,0.1-1,0.1-1.5,0.2c-0.5,0.1-0.9,0.2-1.3,0.4s-0.7,0.4-1,0.7c-0.2,0.3-0.4,0.7-0.4,1.3c0,0.4,0.1,0.7,0.2,0.9   c0.1,0.2,0.3,0.4,0.6,0.6c0.2,0.2,0.5,0.3,0.8,0.3c0.3,0.1,0.6,0.1,1,0.1c0.7,0,1.3-0.1,1.8-0.3c0.5-0.2,0.9-0.4,1.2-0.7   c0.3-0.3,0.6-0.6,0.7-1c0.2-0.3,0.2-0.7,0.2-1L419,170L419,170z"/>
	<path class="st0" d="M432.2,166c-0.5-0.5-1.3-0.7-2.2-0.7c-0.8,0-1.4,0.1-2,0.4c-0.5,0.3-0.9,0.7-1.3,1.1c-0.3,0.5-0.5,1-0.7,1.6   c-0.1,0.6-0.2,1.3-0.2,1.9c0,0.6,0.1,1.2,0.2,1.8c0.1,0.6,0.4,1.1,0.7,1.5c0.3,0.4,0.7,0.8,1.2,1.1c0.5,0.3,1.1,0.4,1.8,0.4   c1.1,0,1.9-0.3,2.5-0.8c0.6-0.6,1-1.3,1.1-2.4h2.2c-0.2,1.6-0.8,2.9-1.8,3.8c-1,0.9-2.3,1.3-4,1.3c-1,0-1.9-0.2-2.7-0.5   c-0.8-0.3-1.4-0.8-1.9-1.4c-0.5-0.6-0.9-1.3-1.2-2.1c-0.3-0.8-0.4-1.7-0.4-2.7c0-1,0.1-1.9,0.4-2.8c0.3-0.9,0.6-1.6,1.2-2.2   c0.5-0.6,1.2-1.1,1.9-1.5c0.8-0.4,1.7-0.5,2.7-0.5c0.7,0,1.4,0.1,2.1,0.3c0.7,0.2,1.2,0.5,1.7,0.8c0.5,0.4,0.9,0.8,1.2,1.4   c0.3,0.6,0.5,1.2,0.6,2h-2.2C433.1,167.1,432.8,166.4,432.2,166z"/>
	<path class="st0" d="M439.7,173.9c0.2,0.3,0.5,0.6,0.8,0.8c0.3,0.2,0.7,0.3,1.1,0.4c0.4,0.1,0.8,0.1,1.3,0.1c0.3,0,0.7,0,1.1-0.1   s0.7-0.1,1-0.3c0.3-0.1,0.6-0.3,0.8-0.6c0.2-0.3,0.3-0.6,0.3-1c0-0.6-0.2-1-0.6-1.3c-0.4-0.3-1-0.5-1.6-0.7   c-0.6-0.2-1.3-0.3-2.1-0.5c-0.7-0.1-1.4-0.3-2.1-0.6c-0.6-0.3-1.2-0.6-1.6-1.1c-0.4-0.5-0.6-1.1-0.6-2c0-0.7,0.1-1.2,0.4-1.7   c0.3-0.5,0.7-0.9,1.1-1.2c0.5-0.3,1-0.5,1.6-0.7c0.6-0.1,1.2-0.2,1.7-0.2c0.7,0,1.4,0.1,2.1,0.2c0.6,0.1,1.2,0.3,1.7,0.7   c0.5,0.3,0.9,0.7,1.2,1.3c0.3,0.5,0.5,1.2,0.5,2h-2.2c0-0.4-0.1-0.8-0.3-1.1c-0.2-0.3-0.4-0.5-0.7-0.7c-0.3-0.2-0.6-0.3-1-0.4   c-0.3-0.1-0.7-0.1-1.1-0.1c-0.3,0-0.6,0-1,0.1c-0.3,0.1-0.6,0.1-0.9,0.3c-0.3,0.1-0.5,0.3-0.7,0.5c-0.2,0.2-0.3,0.5-0.3,0.8   c0,0.4,0.1,0.7,0.4,0.9c0.3,0.2,0.6,0.4,1,0.6s0.9,0.3,1.4,0.4c0.5,0.1,1,0.2,1.5,0.3c0.5,0.1,1.1,0.3,1.6,0.4   c0.5,0.2,1,0.4,1.4,0.7c0.4,0.3,0.7,0.6,1,1.1c0.2,0.4,0.4,1,0.4,1.6c0,0.8-0.2,1.5-0.5,2c-0.3,0.5-0.8,1-1.3,1.3   c-0.5,0.3-1.1,0.5-1.8,0.7c-0.7,0.1-1.3,0.2-2,0.2c-0.7,0-1.4-0.1-2.1-0.2c-0.7-0.2-1.2-0.4-1.8-0.8c-0.5-0.3-0.9-0.8-1.2-1.4   s-0.5-1.3-0.5-2.1h2.2C439.4,173.2,439.5,173.6,439.7,173.9z"/>
	<path class="st0" d="M450.7,161.3v-2.6h2.2v2.6H450.7z M452.9,163.7v13.2h-2.2v-13.2H452.9z"/>
	<path class="st0" d="M457.8,173.9c0.2,0.3,0.5,0.6,0.8,0.8c0.3,0.2,0.7,0.3,1.1,0.4c0.4,0.1,0.8,0.1,1.3,0.1c0.3,0,0.7,0,1.1-0.1   s0.7-0.1,1-0.3c0.3-0.1,0.6-0.3,0.8-0.6c0.2-0.3,0.3-0.6,0.3-1c0-0.6-0.2-1-0.6-1.3c-0.4-0.3-1-0.5-1.6-0.7   c-0.6-0.2-1.3-0.3-2.1-0.5c-0.7-0.1-1.4-0.3-2.1-0.6c-0.6-0.3-1.2-0.6-1.6-1.1c-0.4-0.5-0.6-1.1-0.6-2c0-0.7,0.1-1.2,0.4-1.7   c0.3-0.5,0.7-0.9,1.1-1.2c0.5-0.3,1-0.5,1.6-0.7c0.6-0.1,1.2-0.2,1.7-0.2c0.7,0,1.4,0.1,2.1,0.2c0.6,0.1,1.2,0.3,1.7,0.7   c0.5,0.3,0.9,0.7,1.2,1.3c0.3,0.5,0.5,1.2,0.5,2h-2.2c0-0.4-0.1-0.8-0.3-1.1c-0.2-0.3-0.4-0.5-0.7-0.7c-0.3-0.2-0.6-0.3-1-0.4   c-0.3-0.1-0.7-0.1-1.1-0.1c-0.3,0-0.6,0-1,0.1c-0.3,0.1-0.6,0.1-0.9,0.3c-0.3,0.1-0.5,0.3-0.7,0.5c-0.2,0.2-0.3,0.5-0.3,0.8   c0,0.4,0.1,0.7,0.4,0.9s0.6,0.4,1,0.6s0.9,0.3,1.4,0.4c0.5,0.1,1,0.2,1.5,0.3c0.5,0.1,1.1,0.3,1.6,0.4c0.5,0.2,1,0.4,1.4,0.7   c0.4,0.3,0.7,0.6,1,1.1c0.2,0.4,0.4,1,0.4,1.6c0,0.8-0.2,1.5-0.5,2c-0.3,0.5-0.8,1-1.3,1.3c-0.5,0.3-1.1,0.5-1.8,0.7   c-0.7,0.1-1.3,0.2-2,0.2c-0.7,0-1.4-0.1-2.1-0.2c-0.7-0.2-1.2-0.4-1.8-0.8c-0.5-0.3-0.9-0.8-1.2-1.4s-0.5-1.3-0.5-2.1h2.2   C457.5,173.2,457.6,173.6,457.8,173.9z"/>
	<path class="st0" d="M487.3,176.6c-1.1,0.4-2.1,0.6-3.2,0.6c-1.4,0-2.6-0.3-3.6-0.8c-1.1-0.5-2-1.2-2.7-2c-0.7-0.8-1.3-1.8-1.7-2.9   s-0.6-2.3-0.6-3.4c0-1.3,0.2-2.6,0.5-3.8c0.4-1.2,0.9-2.2,1.6-3.1c0.7-0.9,1.6-1.6,2.7-2.2c1.1-0.5,2.3-0.8,3.8-0.8   c1,0,1.9,0.1,2.8,0.3c0.9,0.2,1.7,0.6,2.3,1.1c0.7,0.5,1.3,1.1,1.7,1.9c0.5,0.8,0.8,1.7,1,2.7h-2.4c-0.1-0.7-0.3-1.3-0.7-1.8   c-0.3-0.5-0.7-0.9-1.2-1.2c-0.5-0.3-1-0.6-1.6-0.7c-0.6-0.2-1.2-0.2-1.9-0.2c-1.1,0-2.1,0.2-2.8,0.7c-0.8,0.4-1.4,1-1.9,1.7   c-0.5,0.7-0.9,1.5-1.1,2.5c-0.2,0.9-0.4,1.9-0.4,2.8c0,1,0.1,1.9,0.4,2.7c0.3,0.9,0.7,1.6,1.2,2.3c0.5,0.7,1.2,1.2,1.9,1.6   c0.8,0.4,1.7,0.6,2.7,0.6c1,0,1.8-0.2,2.5-0.5c0.7-0.3,1.3-0.7,1.8-1.3c0.5-0.5,0.9-1.2,1.1-1.9c0.3-0.7,0.4-1.5,0.3-2.3h-5.8v-2h8   v9.6h-1.5l-0.6-2.3C489.3,175.5,488.4,176.2,487.3,176.6z"/>
	<path class="st0" d="M497.3,163.7v2.8h0.1c0.5-1.1,1.2-1.9,1.9-2.4c0.8-0.5,1.7-0.7,2.9-0.7v2.3c-0.9,0-1.6,0.1-2.2,0.4   c-0.6,0.2-1.1,0.6-1.5,1c-0.4,0.5-0.6,1-0.8,1.7c-0.2,0.7-0.3,1.4-0.3,2.3v5.9h-2.2v-13.2L497.3,163.7L497.3,163.7z"/>
	<path class="st0" d="M503.4,167.6c0.3-0.8,0.7-1.6,1.2-2.2c0.5-0.6,1.2-1.1,2-1.5s1.7-0.5,2.8-0.5c1.1,0,2,0.2,2.8,0.5   c0.8,0.4,1.5,0.8,2,1.5c0.5,0.6,1,1.4,1.2,2.2c0.3,0.8,0.4,1.7,0.4,2.7s-0.1,1.9-0.4,2.7c-0.3,0.8-0.7,1.6-1.2,2.2   c-0.5,0.6-1.2,1.1-2,1.5c-0.8,0.3-1.7,0.5-2.8,0.5c-1,0-2-0.2-2.8-0.5s-1.5-0.8-2-1.5c-0.5-0.6-1-1.3-1.2-2.2   c-0.3-0.8-0.4-1.7-0.4-2.7C503,169.3,503.1,168.4,503.4,167.6z M505.6,172.4c0.2,0.6,0.5,1.1,0.9,1.6c0.4,0.4,0.8,0.7,1.3,1   s1,0.3,1.6,0.3c0.6,0,1.1-0.1,1.6-0.3c0.5-0.2,0.9-0.5,1.3-1c0.4-0.4,0.7-0.9,0.9-1.6c0.2-0.6,0.3-1.3,0.3-2.1   c0-0.8-0.1-1.5-0.3-2.1c-0.2-0.6-0.5-1.1-0.9-1.6c-0.4-0.4-0.8-0.7-1.3-1c-0.5-0.2-1-0.3-1.6-0.3c-0.6,0-1.1,0.1-1.6,0.3   s-0.9,0.5-1.3,1s-0.7,0.9-0.9,1.6c-0.2,0.6-0.3,1.3-0.3,2.1C505.2,171.1,505.4,171.8,505.6,172.4z"/>
	<path class="st0" d="M527,176.8v-2.1h-0.1c-0.5,0.8-1,1.4-1.8,1.8c-0.7,0.4-1.6,0.6-2.5,0.6c-0.9,0-1.6-0.1-2.2-0.3   c-0.6-0.2-1-0.6-1.4-1s-0.6-0.9-0.8-1.5s-0.2-1.2-0.2-1.9v-8.7h2.2v8.9c0,0.8,0.2,1.5,0.7,1.9c0.5,0.5,1.1,0.7,2,0.7   c0.7,0,1.2-0.1,1.7-0.3c0.5-0.2,0.9-0.5,1.2-0.9c0.3-0.4,0.6-0.8,0.7-1.3c0.2-0.5,0.2-1,0.2-1.6v-7.4h2.2v13.2L527,176.8L527,176.8   z"/>
	<path class="st0" d="M534.3,163.7v1.8h0.1c0.4-0.7,0.9-1.3,1.7-1.6c0.8-0.3,1.6-0.5,2.5-0.5c1,0,1.9,0.2,2.7,0.6   c0.8,0.4,1.4,0.9,1.9,1.5c0.5,0.6,0.9,1.4,1.1,2.2c0.3,0.8,0.4,1.7,0.4,2.6c0,0.9-0.1,1.8-0.4,2.6s-0.6,1.6-1.1,2.2   c-0.5,0.6-1.1,1.1-1.9,1.5c-0.8,0.4-1.6,0.5-2.6,0.5c-0.3,0-0.7,0-1.1-0.1c-0.4-0.1-0.8-0.2-1.2-0.3s-0.8-0.4-1.1-0.6   c-0.3-0.3-0.6-0.6-0.9-1h-0.1v6.8h-2.2v-18.2L534.3,163.7L534.3,163.7z M542.1,168.3c-0.2-0.6-0.4-1.1-0.7-1.6   c-0.3-0.5-0.8-0.8-1.3-1.1c-0.5-0.3-1.1-0.4-1.8-0.4c-0.7,0-1.4,0.1-1.9,0.4c-0.5,0.3-0.9,0.7-1.2,1.1c-0.3,0.5-0.6,1-0.7,1.6   c-0.1,0.6-0.2,1.2-0.2,1.8c0,0.6,0.1,1.3,0.2,1.9c0.2,0.6,0.4,1.1,0.7,1.6c0.3,0.5,0.8,0.8,1.3,1.1c0.5,0.3,1.2,0.4,1.9,0.4   c0.7,0,1.4-0.1,1.9-0.4c0.5-0.3,0.9-0.7,1.2-1.1c0.3-0.5,0.5-1,0.7-1.6c0.1-0.6,0.2-1.2,0.2-1.9   C542.3,169.5,542.3,168.9,542.1,168.3z"/>
</g>
</svg>